<svg width="6" height="10" viewBox="0 0 6 10" fill="none" xmlns="http://www.w3.org/2000/svg">
<path d="M3.00865 10C2.43804 10 1.92939 9.89227 1.48271 9.67681C1.0389 9.46134 0.685879 9.16191 0.423631 8.77852C0.164265 8.39195 0.0230547 7.9436 0 7.43346H1.08934C1.11239 7.74715 1.21037 8.01806 1.38329 8.2462C1.5562 8.47117 1.78242 8.64544 2.06196 8.76901C2.3415 8.89259 2.6513 8.95437 2.99135 8.95437C3.37176 8.95437 3.70893 8.8815 4.00288 8.73574C4.29683 8.58999 4.52738 8.3872 4.69452 8.12738C4.86167 7.86755 4.94524 7.56654 4.94524 7.22433C4.94524 6.86629 4.86455 6.55101 4.70317 6.27852C4.54179 6.00285 4.30548 5.78739 3.99424 5.63213C3.683 5.47687 3.30259 5.39924 2.85303 5.39924H2.14409V4.35361H2.85303C3.20461 4.35361 3.51297 4.2839 3.7781 4.14449C4.04611 4.00507 4.25504 3.80862 4.4049 3.55513C4.55764 3.30165 4.63401 3.0038 4.63401 2.6616C4.63401 2.33207 4.56772 2.04531 4.43516 1.80133C4.30259 1.55735 4.11527 1.36724 3.8732 1.23099C3.63401 1.09474 3.35158 1.02662 3.02594 1.02662C2.72046 1.02662 2.43228 1.0884 2.16138 1.21198C1.89337 1.33238 1.67435 1.50824 1.50432 1.73954C1.33429 1.96768 1.24207 2.24335 1.22767 2.56654H0.190202C0.207493 2.0564 0.347262 1.60963 0.60951 1.22624C0.871758 0.83967 1.2147 0.538656 1.63833 0.323194C2.06484 0.107731 2.53314 0 3.04323 0C3.59078 0 4.06052 0.12199 4.45245 0.36597C4.84438 0.606781 5.14553 0.925222 5.35591 1.32129C5.56628 1.71736 5.67147 2.14512 5.67147 2.60456C5.67147 3.15273 5.54035 3.62009 5.2781 4.00665C5.01873 4.39322 4.66571 4.66096 4.21902 4.80989V4.88593C4.7781 4.98733 5.2147 5.24873 5.52882 5.67015C5.84294 6.0884 6 6.60646 6 7.22433C6 7.75349 5.86888 8.22877 5.60663 8.65019C5.34726 9.06844 4.9928 9.39797 4.54323 9.63878C4.09366 9.87959 3.58213 10 3.00865 10Z" fill="white"/>
</svg>
