<svg width="21" height="21" viewBox="0 0 21 21" fill="none" xmlns="http://www.w3.org/2000/svg">
<path d="M13.7813 9.1875V5.25C13.7813 4.37976 13.4356 3.54516 12.8202 2.92981C12.2049 2.31445 11.3703 1.96875 10.5 1.96875C9.62978 1.96875 8.79518 2.31445 8.17982 2.92981C7.56447 3.54516 7.21877 4.37976 7.21877 5.25V9.1875M17.1553 7.44362L18.2604 17.9436C18.3216 18.5255 17.8666 19.0312 17.2813 19.0312H3.71877C3.5807 19.0314 3.44414 19.0025 3.31797 18.9464C3.1918 18.8904 3.07883 18.8084 2.98641 18.7058C2.89399 18.6032 2.82418 18.4824 2.78151 18.3511C2.73885 18.2197 2.72429 18.0809 2.73877 17.9436L3.84477 7.44362C3.87028 7.20174 3.98444 6.97786 4.16524 6.81516C4.34603 6.65246 4.58067 6.56246 4.82389 6.5625H16.1761C16.6801 6.5625 17.1028 6.94312 17.1553 7.44362ZM7.54689 9.1875C7.54689 9.27452 7.51232 9.35798 7.45079 9.41952C7.38925 9.48106 7.30579 9.51562 7.21877 9.51562C7.13174 9.51562 7.04828 9.48106 6.98675 9.41952C6.92521 9.35798 6.89064 9.27452 6.89064 9.1875C6.89064 9.10048 6.92521 9.01702 6.98675 8.95548C7.04828 8.89394 7.13174 8.85938 7.21877 8.85938C7.30579 8.85938 7.38925 8.89394 7.45079 8.95548C7.51232 9.01702 7.54689 9.10048 7.54689 9.1875ZM14.1094 9.1875C14.1094 9.27452 14.0748 9.35798 14.0133 9.41952C13.9518 9.48106 13.8683 9.51562 13.7813 9.51562C13.6942 9.51562 13.6108 9.48106 13.5492 9.41952C13.4877 9.35798 13.4531 9.27452 13.4531 9.1875C13.4531 9.10048 13.4877 9.01702 13.5492 8.95548C13.6108 8.89394 13.6942 8.85938 13.7813 8.85938C13.8683 8.85938 13.9518 8.89394 14.0133 8.95548C14.0748 9.01702 14.1094 9.10048 14.1094 9.1875Z" stroke="#875541" stroke-width="1.5" stroke-linecap="round" stroke-linejoin="round"/>
</svg>
